<svg width="256" height="256" viewBox="0 0 256 256" fill="none" xmlns="http://www.w3.org/2000/svg">
<path d="M207.243 57.8618L207.243 57.8618L161.795 12.4142C158.015 8.6344 151.552 11.3114 151.552 16.6569V44.8479C151.552 46.4392 152.185 47.9653 153.31 49.0906L176.528 72.3093C176.904 72.6844 177.114 73.1931 177.114 73.7235V178.6C177.114 180.382 174.96 181.274 173.7 180.015L93.2426 99.5571C89.4628 95.7773 83 98.4543 83 103.8V131.991C83 133.582 83.6321 135.108 84.7574 136.233L198.757 250.233C202.537 254.013 209 251.336 209 245.991V62.1045C209 60.5132 208.368 58.9871 207.243 57.8618Z" fill="#333333" stroke="#333333" stroke-width="4"/>
<path d="M45.7574 197.786L45.7574 197.786L91.205 243.233C94.9848 247.013 101.448 244.336 101.448 238.991V210.8C101.448 209.208 100.815 207.682 99.6903 206.557L76.4715 183.338C76.0964 182.963 75.8857 182.455 75.8857 181.924V77.0473C75.8857 75.2655 78.04 74.3732 79.2999 75.6331L159.757 156.091C163.537 159.87 170 157.193 170 151.848V123.657C170 122.066 169.368 120.539 168.243 119.414L54.2426 5.41421C50.4629 1.63443 44 4.31142 44 9.65685V193.543C44 195.134 44.6321 196.661 45.7574 197.786Z" fill="#333333" stroke="#333333" stroke-width="4"/>
</svg>
